Coordinates
version=1
nRows=13
nColumns=38
inDegrees=no

Units are S.I. units (second, meters, Newtons, ...)
If the header above contains a line with 'inDegrees', this indicates whether rotational values are in degrees (yes) or radians (no).

endheader
time	pelvis_tilt	pelvis_list	pelvis_rotation	pelvis_tx	pelvis_ty	pelvis_tz	hip_flexion_r	hip_adduction_r	hip_rotation_r	knee_angle_r	ankle_angle_r	subtalar_angle_r	mtp_angle_r	hip_flexion_l	hip_adduction_l	hip_rotation_l	knee_angle_l	ankle_angle_l	subtalar_angle_l	mtp_angle_l	lumbar_extension	lumbar_bending	lumbar_rotation	arm_flex_r	arm_add_r	arm_rot_r	elbow_flex_r	pro_sup_r	wrist_flex_r	wrist_dev_r	arm_flex_l	arm_add_l	arm_rot_l	elbow_flex_l	pro_sup_l	wrist_flex_l	wrist_dev_l
0.77	0.378112	1.27985	-1.69555	0.545333	1.18033	0.933861	0.3781	-0.239134	-0.224067	0.819414	-0.0531868	0	0	-0.437586	0.116424	-0.0550619	0.210908	-0.142587	0	0	-0.329961	0.0817417	0.13664	-0.289604	-0.588855	-0.234767	1.61245	0.767503	0	0	0.453165	-0.281619	0.406018	0.89249	0.938365	0	0
0.78	0.394281	1.28669	-1.71382	0.545767	1.17085	0.93201	0.374069	-0.238474	-0.224759	0.753298	-0.0469806	0	0	-0.441999	0.118949	-0.0576545	0.20916	-0.139338	0	0	-0.321881	0.0766817	0.136637	-0.288042	-0.589371	-0.232291	1.61149	0.767613	0	0	0.460796	-0.305001	0.454288	0.90006	0.918517	0	0
0.79	0.416102	1.29353	-1.73738	0.546211	1.16119	0.929998	0.369144	-0.239395	-0.223984	0.689187	-0.039089	0	0	-0.446241	0.122518	-0.0603279	0.207246	-0.136504	0	0	-0.312231	0.0710536	0.139394	-0.290895	-0.58917	-0.233811	1.61191	0.767195	0	0	0.456253	-0.296854	0.439051	0.897373	0.921811	0	0
0.8	0.436178	1.29788	-1.75918	0.546575	1.15147	0.928119	0.356849	-0.238434	-0.219862	0.618588	-0.0284189	0	0	-0.453174	0.125459	-0.0643116	0.204996	-0.132904	0	0	-0.305295	0.065551	0.141837	-0.292485	-0.589475	-0.234417	1.61174	0.766951	0	0	0.454	-0.292931	0.431762	0.895752	0.92806	0	0
0.81	0.461282	1.30145	-1.78561	0.546871	1.1416	0.926118	0.343888	-0.239413	-0.216323	0.552166	-0.0178266	0	0	-0.460578	0.129407	-0.0664257	0.20298	-0.130614	0	0	-0.298065	0.0588738	0.145412	-0.295902	-0.588862	-0.23686	1.61191	0.766603	0	0	0.446217	-0.273796	0.392839	0.889567	0.949588	0	0
0.82	0.474591	1.30087	-1.8001	0.546996	1.13182	0.924537	0.315279	-0.233759	-0.202531	0.463203	-0.0107552	0	0	-0.472979	0.130135	-0.068973	0.200755	-0.128069	0	0	-0.297267	0.0539127	0.146221	-0.293955	-0.589803	-0.234817	1.61073	0.765485	0	0	0.457088	-0.295404	0.441778	0.894056	0.931945	0	0
0.83	0.489248	1.30023	-1.81543	0.547108	1.1219	0.922897	0.28152	-0.227965	-0.180035	0.365192	-0.0243091	0	0	-0.485156	0.130916	-0.0708495	0.198756	-0.12861	0	0	-0.295981	0.048842	0.147504	-0.293293	-0.59058	-0.233828	1.60996	0.763786	0	0	0.464586	-0.306848	0.471347	0.896385	0.906749	0	0
0.84	0.508074	1.30149	-1.83401	0.547341	1.11175	0.92099	0.252557	-0.224684	-0.159978	0.279012	-0.035551	0	0	-0.494179	0.132113	-0.0698211	0.199617	-0.125669	0	0	-0.291153	0.0435881	0.148332	-0.293575	-0.59053	-0.233327	1.60875	0.763979	0	0	0.466051	-0.30658	0.473839	0.893916	0.9076	0	0
0.85	0.519022	1.301	-1.84293	0.547657	1.10154	0.919348	0.212568	-0.219133	-0.131609	0.178188	-0.0685474	0	0	-0.504395	0.130705	-0.0663487	0.203276	-0.119782	0	0	-0.288218	0.0410746	0.149812	-0.296456	-0.589694	-0.236388	1.60889	0.76467	0	0	0.462105	-0.288705	0.443512	0.884364	0.918925	0	0
0.86	0.542431	1.30292	-1.86428	0.548178	1.09123	0.917193	0.203391	-0.223416	-0.132443	0.152871	-0.0718719	0	0	-0.509512	0.132386	-0.0610289	0.210254	-0.115701	0	0	-0.282442	0.0352485	0.14744	-0.29533	-0.58997	-0.234496	1.6078	0.764636	0	0	0.470461	-0.304727	0.480506	0.887253	0.904144	0	0
0.87	0.560945	1.30363	-1.8801	0.548807	1.08091	0.915267	0.200042	-0.22816	-0.141349	0.155052	-0.0681852	0	0	-0.515401	0.132325	-0.0557561	0.218333	-0.114689	0	0	-0.278139	0.0315566	0.146154	-0.296369	-0.590264	-0.235344	1.60812	0.764854	0	0	0.472222	-0.303345	0.481936	0.883798	0.90517	0	0
0.88	0.568465	1.30187	-1.88383	0.549452	1.0706	0.913804	0.191393	-0.230028	-0.147138	0.161948	-0.0736879	0	0	-0.523599	0.129273	-0.0488313	0.227882	-0.112035	0	0	-0.277249	0.0309066	0.145826	-0.299723	-0.590945	-0.23868	1.60994	0.764162	0	0	0.46864	-0.285052	0.451043	0.873886	0.915161	0	0
0.89	0.585113	1.30211	-1.89516	0.550381	1.06021	0.912059	0.212714	-0.240626	-0.186502	0.245358	-0.0452252	0	0	-0.523599	0.128194	-0.0344734	0.2445	-0.0989647	0	0	-0.274206	0.0279916	0.139713	-0.298417	-0.593932	-0.235106	1.61025	0.758601	0	0	0.475568	-0.298402	0.479685	0.875669	0.917102	0	0
